Coordinates
version=1
nRows=19
nColumns=63
inDegrees=yes

Units are S.I. units (second, meters, Newtons, ...)
If the header above contains a line with 'inDegrees', this indicates whether rotational values are in degrees (yes) or radians (no).

endheader
time	pelvis_tilt	pelvis_list	pelvis_rotation	pelvis_tx	pelvis_ty	pelvis_tz	hip_flexion_r	hip_adduction_r	hip_rotation_r	knee_angle_r	knee_angle_r_beta	ankle_angle_r	subtalar_angle_r	mtp_angle_r	hip_flexion_l	hip_adduction_l	hip_rotation_l	knee_angle_l	knee_angle_l_beta	ankle_angle_l	subtalar_angle_l	mtp_angle_l	L5_S1_Flex_Ext	L5_S1_Lat_Bending	L5_S1_axial_rotation	L4_L5_Flex_Ext	L4_L5_Lat_Bending	L4_L5_axial_rotation	L3_L4_Flex_Ext	L3_L4_Lat_Bending	L3_L4_axial_rotation	L2_L3_Flex_Ext	L2_L3_Lat_Bending	L2_L3_axial_rotation	L1_L2_Flex_Ext	L1_L2_Lat_Bending	L1_L2_axial_rotation	L1_T12_Flex_Ext	L1_T12_Lat_Bending	L1_T12_axial_rotation	Abs_r3	Abs_r2	Abs_r1	Abs_t1	Abs_t2	neck_flexion	neck_bending	neck_rotation	arm_flex_r	arm_add_r	arm_rot_r	elbow_flex_r	pro_sup_r	wrist_flex_r	wrist_dev_r	arm_flex_l	arm_add_l	arm_rot_l	elbow_flex_l	pro_sup_l	wrist_flex_l	wrist_dev_l
0.000000	2.635143	-3.602083	100.961425	0.013551	1.004263	0.699201	-1.153750	0.681581	2.872379	1.948535	0.034008	25.292393	-2.553273	0.000000	2.790019	1.042348	1.006994	6.802826	0.118732	30.430248	1.463491	0.000000	0.161991	-0.104811	-1.058362	0.300833	-0.139399	-1.124510	0.266135	-0.254837	-1.124510	0.185139	-0.254837	-0.926067	0.150425	-0.213731	-0.859919	0.092561	-0.162352	-0.793772	1.157083	-1.185643	-5.886294	0.000000	0.000000	26.649820	10.542865	5.868788	13.426817	-3.403868	54.312607	31.607596	23.332393	-0.680915	-1.179885	17.310543	-6.786406	62.427701	34.980174	59.883055	7.524257	-0.164261
0.016949	2.497631	-3.895340	100.492951	0.013680	1.003500	0.700503	-0.255315	0.332416	0.821259	3.112056	0.054316	26.122444	0.189483	0.000000	3.066582	1.347218	2.495543	6.875578	0.120001	30.025260	-1.194023	0.000000	0.170247	-0.106203	-0.988315	0.316166	-0.141250	-1.050085	0.279699	-0.258222	-1.050085	0.194575	-0.258222	-0.864776	0.158091	-0.216569	-0.803006	0.097279	-0.164508	-0.741236	1.216058	-1.201388	-5.496713	0.000000	0.000000	26.883142	10.849373	7.068371	13.404212	-3.493369	56.195334	30.937963	21.822554	-0.428150	0.116815	16.750966	-6.453273	62.428657	34.775446	58.591960	7.632810	0.734989
0.033898	2.369045	-4.143247	100.113252	0.013796	1.002920	0.701660	0.518351	0.020314	-0.897108	4.116051	0.071839	26.841745	2.478106	0.000000	3.308118	1.613937	3.721048	6.936869	0.121071	29.684084	-3.322218	0.000000	0.175628	-0.107695	-0.929725	0.326159	-0.143234	-0.987833	0.288540	-0.261850	-0.987833	0.200726	-0.261850	-0.813510	0.163088	-0.219612	-0.755402	0.100354	-0.166819	-0.697294	1.254495	-1.218267	-5.170853	0.000000	0.000000	27.070596	11.042420	8.114452	13.414605	-3.586699	58.022923	30.333679	20.466945	-0.174235	1.169029	16.284532	-6.154175	62.601812	34.527990	58.037758	7.584545	1.190621
0.050847	2.249317	-4.347417	99.814626	0.013899	1.002506	0.702673	1.171995	-0.255928	-2.303249	4.968190	0.086711	27.455938	4.342423	0.000000	3.513793	1.844753	4.710329	6.986402	0.121936	29.401408	-4.974484	0.000000	0.178473	-0.109266	-0.881705	0.331442	-0.145324	-0.936812	0.293213	-0.265669	-0.936812	0.203977	-0.265669	-0.771492	0.165730	-0.222815	-0.716385	0.101979	-0.169253	-0.661279	1.274814	-1.236037	-4.903779	0.000000	0.000000	27.215157	11.134428	9.010608	13.450920	-3.681645	59.774016	29.792661	19.263214	0.077055	1.996929	15.904998	-5.887226	62.928038	34.245372	58.109064	7.401565	1.259562
0.067797	2.138384	-4.509458	99.589370	0.013990	1.002243	0.703542	1.710367	-0.497514	-3.417691	5.676141	0.099067	27.970660	5.812261	0.000000	3.682775	2.041914	5.490205	7.023879	0.122590	29.171922	-6.204212	0.000000	0.179120	-0.110894	-0.843368	0.332643	-0.147489	-0.896078	0.294276	-0.269628	-0.896078	0.204716	-0.269628	-0.737947	0.166331	-0.226135	-0.685236	0.102349	-0.171775	-0.632526	1.279435	-1.254457	-4.690557	0.000000	0.000000	27.319794	11.137819	9.760417	13.506081	-3.775990	61.427254	29.312828	18.209007	0.321943	2.620683	15.606117	-5.650544	63.388207	33.935159	58.694493	7.105972	0.998739
0.084746	2.036179	-4.630982	99.429782	0.014071	1.002113	0.704267	2.138214	-0.705647	-4.260964	6.247573	0.109041	28.391553	6.917447	0.000000	3.814232	2.207667	6.087497	7.049003	0.123028	28.990317	-7.064795	0.000000	0.177908	-0.112559	-0.813825	0.330392	-0.149703	-0.864689	0.292285	-0.273675	-0.864689	0.203331	-0.273675	-0.712097	0.165205	-0.229530	-0.661233	0.101656	-0.174353	-0.610369	1.270777	-1.273287	-4.526253	0.000000	0.000000	27.387482	11.065013	10.367459	13.573012	-3.867521	62.961279	28.892097	17.301972	0.556653	3.060461	15.381645	-5.442244	63.963191	33.604918	59.682659	6.719870	0.465081
0.101695	1.942635	-4.713599	99.328159	0.014143	1.002101	0.704848	2.460284	-0.881530	-4.853595	6.690155	0.116765	28.724254	7.687807	0.000000	3.907331	2.344259	6.529025	7.061478	0.123246	28.851281	-7.609622	0.000000	0.175175	-0.114238	-0.792191	0.325318	-0.151937	-0.841703	0.287796	-0.277758	-0.841703	0.200208	-0.277758	-0.693168	0.162668	-0.232954	-0.643656	0.100095	-0.176955	-0.594144	1.251260	-1.292283	-4.405931	0.000000	0.000000	27.421193	10.928434	10.835310	13.644638	-3.954022	64.354730	28.528386	16.539754	0.777411	3.336434	15.225337	-5.260442	64.633864	33.262216	60.962177	6.265361	-0.284486
0.118644	1.857688	-4.758920	99.276799	0.014206	1.002192	0.705284	2.681325	-1.026369	-5.216112	7.011556	0.122375	28.974404	8.153168	0.000000	3.961240	2.453938	6.841610	7.061005	0.123238	28.749505	-7.892085	0.000000	0.171262	-0.115911	-0.777578	0.318050	-0.154161	-0.826177	0.281366	-0.281826	-0.826177	0.195735	-0.281826	-0.680381	0.159033	-0.236365	-0.631782	0.097859	-0.179546	-0.583184	1.223304	-1.311206	-4.324658	0.000000	0.000000	27.423898	10.740502	11.167550	13.713881	-4.033279	65.586250	28.219615	15.920002	0.980441	3.468771	15.130948	-5.103254	65.381097	32.914619	62.421662	5.764547	-1.193033
0.135593	1.781272	-4.768555	99.267998	0.014263	1.002368	0.705577	2.806085	-1.141366	-5.369044	7.219445	0.126003	29.147641	8.343357	0.000000	3.975127	2.538951	7.052070	7.047289	0.122998	28.679679	-7.965576	0.000000	0.166505	-0.117556	-0.769099	0.309216	-0.156349	-0.817168	0.273551	-0.285825	-0.817168	0.190298	-0.285825	-0.672962	0.154616	-0.239720	-0.624893	0.095141	-0.182094	-0.576824	1.189327	-1.329814	-4.277499	0.000000	0.000000	27.398570	10.513640	11.367756	13.773666	-4.103077	66.634480	27.963700	15.440361	1.161966	3.477641	15.092232	-4.968797	66.185762	32.569694	63.949727	5.239531	-2.203633
0.152542	1.713320	-4.744115	99.294055	0.014314	1.002614	0.705726	2.839312	-1.227724	-5.332917	7.321490	0.127784	29.249606	8.288200	0.000000	3.948158	2.601545	7.187226	7.020031	0.122523	28.636491	-7.883485	0.000000	0.161244	-0.119151	-0.765866	0.299446	-0.158471	-0.813733	0.264908	-0.289705	-0.813733	0.184286	-0.289705	-0.670133	0.149731	-0.242974	-0.622266	0.092135	-0.184566	-0.574400	1.151750	-1.347865	-4.259519	0.000000	0.000000	27.348181	10.260268	11.439506	13.816917	-4.161201	67.478060	27.758561	15.098480	1.318211	3.383215	15.102944	-4.855186	67.028733	32.235008	65.434987	4.712416	-3.259359
0.169492	1.653767	-4.687210	99.347266	0.014360	1.002913	0.705731	2.785755	-1.286649	-5.128260	7.325360	0.127852	29.285938	8.017523	0.000000	3.879502	2.643970	7.273898	6.978935	0.121805	28.614633	-7.699203	0.000000	0.155818	-0.120677	-0.766993	0.289370	-0.160500	-0.814930	0.255993	-0.293413	-0.814930	0.178084	-0.293413	-0.671119	0.144693	-0.246084	-0.623182	0.089034	-0.186928	-0.575245	1.112992	-1.365117	-4.265784	0.000000	0.000000	27.275703	9.992809	11.386380	13.836558	-4.205436	68.095633	27.602115	14.892005	1.445400	3.205663	15.156841	-4.760538	67.890880	31.918129	66.766058	4.205303	-4.303283
0.186441	1.584097	-4.603047	99.412620	0.014456	1.003188	0.705538	2.637602	-1.337010	-4.815831	7.240424	0.126369	29.238705	7.606293	0.000000	3.764350	2.681653	7.288961	6.943630	0.121189	28.597827	-7.404293	0.000000	0.152022	-0.126201	-0.773527	0.282320	-0.167847	-0.821872	0.249757	-0.306845	-0.821872	0.173746	-0.306845	-0.676836	0.141167	-0.257349	-0.628491	0.086865	-0.195485	-0.580145	1.085876	-1.427609	-4.302125	0.000000	0.000000	27.194178	9.794323	11.127648	13.729143	-4.208238	67.934357	27.574481	14.858238	1.445433	2.829324	15.235423	-4.682937	68.718426	31.626912	67.331419	3.721019	-5.303318
0.203390	1.524249	-4.481325	99.459887	0.014545	1.003513	0.705199	2.409461	-1.361349	-4.383047	7.066157	0.123328	29.182652	7.112631	0.000000	3.581246	2.717392	7.555869	6.851466	0.119581	28.560104	-7.498188	0.000000	0.149826	-0.130713	-0.778584	0.278243	-0.173849	-0.827246	0.246150	-0.317816	-0.827246	0.171237	-0.317816	-0.681261	0.139129	-0.266550	-0.632600	0.085611	-0.202475	-0.583938	1.070195	-1.478654	-4.330253	0.000000	0.000000	27.071801	9.607400	10.742820	13.647681	-4.197622	67.798229	27.527592	14.839159	1.459902	2.555444	15.348460	-4.634044	69.505615	31.402369	67.379364	3.373770	-6.000156
0.220339	1.482290	-4.325128	99.491371	0.014634	1.003859	0.704711	2.103526	-1.348879	-3.786247	6.804369	0.118759	29.083933	6.455080	0.000000	3.337786	2.735336	7.968295	6.719047	0.117269	28.516465	-7.839682	0.000000	0.148497	-0.133566	-0.777166	0.275773	-0.177643	-0.825739	0.243965	-0.324753	-0.825739	0.169717	-0.324753	-0.680020	0.137894	-0.272369	-0.631448	0.084851	-0.206894	-0.582875	1.060696	-1.510930	-4.322365	0.000000	0.000000	26.938472	9.426978	10.204011	13.539242	-4.165826	67.458259	27.492802	15.027970	1.498400	2.357523	15.519546	-4.594284	70.325687	31.230667	66.785849	3.181883	-6.360363
0.237288	1.457531	-4.128921	99.553700	0.014671	1.004209	0.704002	1.679608	-1.289606	-2.853676	6.408106	0.111843	28.845600	5.332375	0.000000	3.033585	2.725534	8.377245	6.570217	0.114672	28.501129	-8.174070	0.000000	0.146962	-0.135203	-0.779424	0.272923	-0.179820	-0.828138	0.241443	-0.328732	-0.828138	0.167963	-0.328732	-0.681996	0.136469	-0.275706	-0.633282	0.083974	-0.209429	-0.584568	1.049733	-1.529443	-4.334920	0.000000	0.000000	26.816706	9.274904	9.531760	13.347363	-4.108413	66.786088	27.505969	15.468120	1.485135	2.119418	15.703773	-4.570860	71.086599	31.116748	65.655904	3.181501	-6.431665
0.254237	1.455347	-3.930390	99.595870	0.014717	1.004505	0.703224	1.258857	-1.214458	-2.191525	6.029391	0.105233	28.677092	4.602277	0.000000	2.729092	2.688276	8.697933	6.441685	0.112429	28.520555	-8.464116	0.000000	0.148083	-0.134255	-0.775492	0.275005	-0.178560	-0.823961	0.243286	-0.326429	-0.823961	0.169244	-0.326429	-0.678556	0.137510	-0.273774	-0.630087	0.084615	-0.207962	-0.581619	1.057742	-1.518724	-4.313055	0.000000	0.000000	26.708675	9.127845	8.809074	13.131597	-4.040455	65.935215	27.542970	15.939794	1.454013	1.956768	15.938667	-4.528770	71.888088	31.012172	64.072057	3.298491	-6.266969
0.271186	1.463122	-3.716110	99.672094	0.014710	1.004756	0.702348	0.790217	-1.116047	-1.423957	5.612730	0.097961	28.427974	3.655313	0.000000	2.406489	2.632819	8.939491	6.332105	0.110516	28.550586	-8.655102	0.000000	0.148957	-0.132113	-0.781684	0.276628	-0.175710	-0.830539	0.244721	-0.321220	-0.830539	0.170243	-0.321220	-0.683973	0.138321	-0.269405	-0.635118	0.085114	-0.204643	-0.586263	1.063983	-1.494489	-4.347490	0.000000	0.000000	26.610617	8.998294	8.086202	12.880238	-3.956135	64.898474	27.600083	16.518429	1.366195	1.794776	16.155215	-4.478998	72.523995	30.933124	62.172558	3.532134	-5.822713
0.288136	1.479909	-3.504456	99.757182	0.014702	1.004931	0.701369	0.315248	-1.003172	-0.625620	5.201651	0.090786	28.146006	2.618993	0.000000	2.085986	2.562030	9.084359	6.247295	0.109036	28.594180	-8.738947	0.000000	0.151886	-0.128730	-0.796533	0.282068	-0.171211	-0.846317	0.249534	-0.312994	-0.846317	0.173591	-0.312994	-0.696967	0.141042	-0.262506	-0.647183	0.086788	-0.199403	-0.597400	1.084909	-1.456218	-4.430080	0.000000	0.000000	26.516761	8.908642	7.460107	12.571981	-3.859946	63.656537	27.697061	17.240828	1.196820	1.615622	16.325242	-4.444014	72.974636	30.913178	60.145550	3.779481	-5.265934
0.305085	1.502295	-3.279473	99.841636	0.014700	1.005066	0.700313	-0.186286	-0.875751	0.249453	4.778482	0.083400	27.810186	1.431848	0.000000	1.743540	2.480322	9.203643	6.166973	0.107634	28.617685	-8.810722	0.000000	0.153611	-0.124119	-0.821050	0.285271	-0.165079	-0.872365	0.252368	-0.301783	-0.872365	0.175562	-0.301783	-0.718418	0.142643	-0.253104	-0.667103	0.087773	-0.192261	-0.615787	1.097228	-1.404061	-4.566432	0.000000	0.000000	26.408655	8.859348	6.945058	12.254296	-3.765920	62.356792	27.822754	18.004091	0.939294	1.414111	16.454415	-4.414418	73.231154	30.927421	58.095385	4.013490	-4.675991
